<svg xmlns="http://www.w3.org/2000/svg" viewBox="0 0 105 105"><defs><style>.cls-1{fill:#83ba43;}.cls-2{fill:#fff;}.cls-3{fill:none;stroke:#fff;stroke-miterlimit:10;stroke-width:3px;}</style></defs><title>randomUserRemake</title><g id="Layer_2" data-name="Layer 2"><g id="Layer_1-2" data-name="Layer 1"><circle class="cls-1" cx="52.5" cy="52.5" r="52.5"/></g><g id="Layer_2-2" data-name="Layer 2"><path class="cls-2" d="M52.5,21a21.5,21.5,0,0,1,0,43c-10.18,0-18.23-8-20.64-15.46A17.25,17.25,0,0,1,31,42.62C31.35,33.78,39.22,21,52.5,21m0-3C37.19,18,28.41,32.36,28,42.5a20.52,20.52,0,0,0,1,7C31.82,58.23,40.9,67,52.5,67a24.5,24.5,0,0,0,0-49Z"/><path class="cls-3" d="M74.5,49.5c-22.52,3-29-2-36-5s-9,1-9,1"/><path class="cls-3" d="M52.5,73.5c-15,0-19-9-23-10s-5,4-5,4-1,7,0,9c1,4,8,11,28,11"/><path class="cls-3" d="M52.5,73.5c15,0,19-9,23-10s5,4,5,4,1,7,0,9c-1,4-8,11-28,11"/></g></g></svg>