<svg xmlns="http://www.w3.org/2000/svg" viewBox="0 0 105 105" width="50" height="50">
  <defs>
    <style>.prefix__cls-3{fill:none;stroke:#fff;stroke-miterlimit:10;stroke-width:3px}</style>
  </defs>
  <g id="prefix__Layer_2" data-name="Layer 2">
    <circle cx="52.5" cy="52.5" r="52.5" fill="#83ba43" id="prefix__Layer_1-2" data-name="Layer 1"/>
    <g id="prefix__Layer_2-2" data-name="Layer 2">
      <path d="M52.5 21a21.5 21.5 0 010 43c-10.18 0-18.23-8-20.64-15.46a17.25 17.25 0 01-.86-5.92C31.35 33.78 39.22 21 52.5 21m0-3C37.19 18 28.41 32.36 28 42.5a20.52 20.52 0 001 7C31.82 58.23 40.9 67 52.5 67a24.5 24.5 0 000-49z" fill="#fff"/>
      <path class="prefix__cls-3" d="M74.5 49.5c-22.52 3-29-2-36-5s-9 1-9 1M52.5 73.5c-15 0-19-9-23-10s-5 4-5 4-1 7 0 9c1 4 8 11 28 11M52.5 73.5c15 0 19-9 23-10s5 4 5 4 1 7 0 9c-1 4-8 11-28 11"/>
    </g>
  </g>
</svg>